<?xml version="1.0" encoding="UTF-8"?>
<svg width="1200px" height="1200px" viewBox="0 0 1200 1200" version="1.1" xmlns="http://www.w3.org/2000/svg" xmlns:xlink="http://www.w3.org/1999/xlink">
    <title>Creadive Logo Black</title>
    <g id="black_h" stroke="none" stroke-width="1" fill="none" fill-rule="evenodd">
        <g id="Group-Copy-5" transform="translate(1, 476)" fill-rule="nonzero">
            <g id="Group-Copy-2">
                <g id="creadive-copy-3" transform="translate(248.5195, 21.9747)" fill="#000000">
                    <path d="M61.6291958,172.658228 C84.6554888,172.658228 104.069814,161.147679 114.454221,143.421435 L92.5566677,129.838987 C86.4614725,140.658903 75.174074,147.795443 61.6291958,147.795443 C41.3118785,147.795443 25.9610166,131.910886 25.9610166,111.191899 C25.9610166,90.4729114 41.3118785,74.5883544 61.6291958,74.5883544 C75.174074,74.5883544 86.4614725,81.7248945 92.5566677,92.5448101 L114.454221,78.9623629 C104.069814,61.2361181 84.6554888,49.7255696 61.6291958,49.7255696 C26.4125125,49.7255696 0,76.1998312 0,111.191899 C0,146.183966 26.4125125,172.658228 61.6291958,172.658228 Z" id="Path"></path>
                    <path d="M197.822048,50.6464135 C182.696934,50.6464135 170.506544,57.7829536 161.928121,69.7539241 L161.928121,52.4881013 L136.644348,52.4881013 L136.644348,169.895696 L161.928121,169.895696 L161.928121,112.803376 C161.928121,91.1635443 175.247251,77.1206751 197.822048,77.1206751 L202.11126,77.1206751 L202.11126,50.6464135 L197.822048,50.6464135 Z" id="Path"></path>
                    <path d="M333.111909,111.42211 C333.111909,75.9696203 307.150892,49.7255696 272.611453,49.7255696 C238.072013,49.7255696 211.885249,75.9696203 211.885249,110.731477 C211.885249,145.953755 238.975005,172.658228 275.546176,172.658228 C297.217981,172.658228 316.180811,163.219578 327.919705,148.255865 L310.76286,133.292152 C304.216169,142.040169 291.348534,149.40692 276.22342,149.40692 C257.486339,149.40692 243.264217,138.356793 239.200753,121.551392 L332.434665,121.551392 C332.886161,118.328439 333.111909,114.645063 333.111909,111.42211 Z M272.385705,72.9768776 C288.865307,72.9768776 302.184437,83.7967932 306.022152,100.371983 L238.975005,100.371983 C243.038469,84.0270042 255.906103,72.9768776 272.385705,72.9768776 Z" id="Shape"></path>
                    <path d="M447.632956,52.4881013 L447.632956,69.2935021 C438.151541,57.0923207 424.155167,49.7255696 407.224069,49.7255696 C374.716362,49.7255696 350.561329,76.1998312 350.561329,111.191899 C350.561329,146.183966 374.716362,172.658228 407.224069,172.658228 C424.155167,172.658228 438.151541,165.291477 447.632956,153.090295 L447.632956,169.895696 L472.916729,169.895696 L472.916729,52.4881013 L447.632956,52.4881013 Z M412.190525,147.795443 C391.647459,147.795443 376.522345,131.910886 376.522345,111.191899 C376.522345,90.4729114 391.647459,74.5883544 412.190525,74.5883544 C432.507842,74.5883544 447.632956,90.4729114 447.632956,111.191899 C447.632956,131.910886 432.507842,147.795443 412.190525,147.795443 Z" id="Shape"></path>
                    <path d="M595.338955,4.14379747 L595.338955,69.2935021 C585.85754,57.0923207 571.861166,49.7255696 554.930068,49.7255696 C522.422361,49.7255696 498.267328,76.1998312 498.267328,111.191899 C498.267328,146.183966 522.422361,172.658228 554.930068,172.658228 C571.861166,172.658228 585.85754,165.291477 595.338955,153.090295 L595.338955,169.895696 L620.622727,169.895696 L620.622727,4.14379747 L595.338955,4.14379747 Z M559.896524,147.795443 C539.353458,147.795443 524.228344,131.910886 524.228344,111.191899 C524.228344,90.4729114 539.353458,74.5883544 559.896524,74.5883544 C580.213841,74.5883544 595.338955,90.4729114 595.338955,111.191899 C595.338955,131.910886 580.213841,147.795443 559.896524,147.795443 Z" id="Shape"></path>
                    <path d="M665.161904,32.6899578 C674.417571,32.6899578 681.415758,25.5534177 681.415758,16.3449789 C681.415758,6.90632911 674.417571,0 665.161904,0 C656.131985,0 649.133798,6.90632911 649.133798,16.3449789 C649.133798,25.5534177 656.131985,32.6899578 665.161904,32.6899578 Z M652.520018,169.895696 L677.80379,169.895696 L677.80379,52.4881013 L652.520018,52.4881013 L652.520018,169.895696 Z" id="Shape"></path>
                    <polygon id="Path" points="792.776334 52.4881013 759.139886 138.126582 725.729186 52.4881013 696.833446 52.4881013 745.820756 169.895696 772.00752 169.895696 820.99483 52.4881013"></polygon>
                    <path d="M947.480519,111.42211 C947.480519,75.9696203 921.519503,49.7255696 886.980063,49.7255696 C852.440624,49.7255696 826.25386,75.9696203 826.25386,110.731477 C826.25386,145.953755 853.343616,172.658228 889.914787,172.658228 C911.586592,172.658228 930.549422,163.219578 942.288316,148.255865 L925.13147,133.292152 C918.584779,142.040169 905.717145,149.40692 890.592031,149.40692 C871.854949,149.40692 857.632827,138.356793 853.569364,121.551392 L946.803276,121.551392 C947.254772,118.328439 947.480519,114.645063 947.480519,111.42211 Z M886.754316,72.9768776 C903.233917,72.9768776 916.553048,83.7967932 920.390763,100.371983 L853.343616,100.371983 C857.407079,84.0270042 870.274714,72.9768776 886.754316,72.9768776 Z" id="Shape"></path>
                </g>
                <g id="Group-Copy" transform="translate(108.7273, 124) scale(-1, 1) translate(-108.7273, -124)">
                    <path d="M5.55221313,111.620305 L81.4056287,189.685839 C86.1668427,194.759251 93.2174825,196.793952 99.8476292,195.007901 C106.477776,193.221851 111.655624,187.893001 113.391064,181.069499 C115.126503,174.245997 113.14946,166.989738 108.219811,162.089673 L45.7734867,97.8222222 L108.219811,33.5547716 C113.14946,28.654706 115.126503,21.3984478 113.391064,14.5749458 C111.655624,7.75144374 106.477776,2.4225936 99.8476292,0.636543176 C93.2174825,-1.14950725 86.1668427,0.885193067 81.4056287,5.95860544 L5.55221313,84.0241391 C-1.85073771,91.645284 -1.85073771,103.99916 5.55221313,111.620305 Z" id="Path-Copy" fill="#15B6B0"></path>
                    <path d="M136.048917,58.314161 C131.287703,53.2407486 124.237063,51.2060483 117.606916,52.9920987 C110.97677,54.7781492 105.798921,60.1069993 104.063482,66.9305013 C102.328042,73.7540034 104.305086,81.0102615 109.234734,85.9103272 L171.681059,150.177778 L109.234734,214.445228 C104.305086,219.345294 102.328042,226.601552 104.063482,233.425054 C105.798921,240.248556 110.97677,245.577406 117.606916,247.363457 C124.237063,249.149507 131.287703,247.114807 136.048917,242.041395 L211.902332,163.975861 C219.305283,156.354716 219.305283,144.00084 211.902332,136.379695 L136.048917,58.314161 Z" id="Path-Copy-2" fill="#20C943"></path>
                </g>
            </g>
        </g>
    </g>
</svg>