<?xml version="1.0" encoding="UTF-8"?>
<svg width="1200px" height="1200px" viewBox="0 0 1200 1200" version="1.1" xmlns="http://www.w3.org/2000/svg" xmlns:xlink="http://www.w3.org/1999/xlink">
    <title>white_h</title>
    <g id="white_h" stroke="none" stroke-width="1" fill="none" fill-rule="evenodd">
        <g id="Group-Copy-5" transform="translate(1, 476)" fill-rule="nonzero">
            <g id="Group-Copy-2">
                <g id="creadive-copy-3" transform="translate(248.7273, 21.9747)" fill="#FFFFFF">
                    <path d="M61.6807253,172.658228 C84.726271,172.658228 104.156829,161.147679 114.549918,143.421435 L92.6340563,129.838987 C86.5337647,140.658903 75.2369286,147.795443 61.6807253,147.795443 C41.3464202,147.795443 25.9827231,131.910886 25.9827231,111.191899 C25.9827231,90.4729114 41.3464202,74.5883544 61.6807253,74.5883544 C75.2369286,74.5883544 86.5337647,81.7248945 92.6340563,92.5448101 L114.549918,78.9623629 C104.156829,61.2361181 84.726271,49.7255696 61.6807253,49.7255696 C26.4345965,49.7255696 0,76.1998312 0,111.191899 C0,146.183966 26.4345965,172.658228 61.6807253,172.658228 Z" id="Path"></path>
                    <path d="M197.987451,50.6464135 C182.849691,50.6464135 170.649108,57.7829536 162.063512,69.7539241 L162.063512,52.4881013 L136.758599,52.4881013 L136.758599,169.895696 L162.063512,169.895696 L162.063512,112.803376 C162.063512,91.1635443 175.393779,77.1206751 197.987451,77.1206751 L202.280249,77.1206751 L202.280249,50.6464135 L197.987451,50.6464135 Z" id="Path"></path>
                    <path d="M333.39043,111.42211 C333.39043,75.9696203 307.407707,49.7255696 272.839389,49.7255696 C238.27107,49.7255696 212.06241,75.9696203 212.06241,110.731477 C212.06241,145.953755 239.174817,172.658228 275.776566,172.658228 C297.466492,172.658228 316.445176,163.219578 328.193886,148.255865 L311.022695,133.292152 C304.47053,142.040169 291.592137,149.40692 276.454376,149.40692 C257.701628,149.40692 243.467615,138.356793 239.400754,121.551392 L332.71262,121.551392 C333.164494,118.328439 333.39043,114.645063 333.39043,111.42211 Z M272.613452,72.9768776 C289.106833,72.9768776 302.437099,83.7967932 306.278024,100.371983 L239.174817,100.371983 C243.241678,84.0270042 256.120071,72.9768776 272.613452,72.9768776 Z" id="Shape"></path>
                    <path d="M448.007231,52.4881013 L448.007231,69.2935021 C438.517889,57.0923207 424.509812,49.7255696 407.564558,49.7255696 C375.02967,49.7255696 350.85444,76.1998312 350.85444,111.191899 C350.85444,146.183966 375.02967,172.658228 407.564558,172.658228 C424.509812,172.658228 438.517889,165.291477 448.007231,153.090295 L448.007231,169.895696 L473.312144,169.895696 L473.312144,52.4881013 L448.007231,52.4881013 Z M412.535166,147.795443 C391.974924,147.795443 376.837163,131.910886 376.837163,111.191899 C376.837163,90.4729114 391.974924,74.5883544 412.535166,74.5883544 C432.869471,74.5883544 448.007231,90.4729114 448.007231,111.191899 C448.007231,131.910886 432.869471,147.795443 412.535166,147.795443 Z" id="Shape"></path>
                    <path d="M595.83673,4.14379747 L595.83673,69.2935021 C586.347388,57.0923207 572.339311,49.7255696 555.394057,49.7255696 C522.859168,49.7255696 498.683939,76.1998312 498.683939,111.191899 C498.683939,146.183966 522.859168,172.658228 555.394057,172.658228 C572.339311,172.658228 586.347388,165.291477 595.83673,153.090295 L595.83673,169.895696 L621.141643,169.895696 L621.141643,4.14379747 L595.83673,4.14379747 Z M560.364664,147.795443 C539.804423,147.795443 524.666662,131.910886 524.666662,111.191899 C524.666662,90.4729114 539.804423,74.5883544 560.364664,74.5883544 C580.698969,74.5883544 595.83673,90.4729114 595.83673,111.191899 C595.83673,131.910886 580.698969,147.795443 560.364664,147.795443 Z" id="Shape"></path>
                    <path d="M665.718059,32.6899578 C674.981465,32.6899578 681.985503,25.5534177 681.985503,16.3449789 C681.985503,6.90632911 674.981465,0 665.718059,0 C656.680591,0 649.676552,6.90632911 649.676552,16.3449789 C649.676552,25.5534177 656.680591,32.6899578 665.718059,32.6899578 Z M653.065603,169.895696 L678.370516,169.895696 L678.370516,52.4881013 L653.065603,52.4881013 L653.065603,169.895696 Z" id="Shape"></path>
                    <polygon id="Path" points="793.43919 52.4881013 759.774618 138.126582 726.335983 52.4881013 697.416083 52.4881013 746.444352 169.895696 772.653012 169.895696 821.68128 52.4881013"></polygon>
                    <path d="M948.272727,111.42211 C948.272727,75.9696203 922.290004,49.7255696 887.721686,49.7255696 C853.153367,49.7255696 826.944707,75.9696203 826.944707,110.731477 C826.944707,145.953755 854.057114,172.658228 890.658863,172.658228 C912.348788,172.658228 931.327473,163.219578 943.076183,148.255865 L925.904992,133.292152 C919.352827,142.040169 906.474434,149.40692 891.336673,149.40692 C872.583925,149.40692 858.349912,138.356793 854.283051,121.551392 L947.594917,121.551392 C948.046791,118.328439 948.272727,114.645063 948.272727,111.42211 Z M887.495749,72.9768776 C903.98913,72.9768776 917.319396,83.7967932 921.160321,100.371983 L854.057114,100.371983 C858.123975,84.0270042 871.002368,72.9768776 887.495749,72.9768776 Z" id="Shape"></path>
                </g>
                <g id="Group-Copy" transform="translate(108.8182, 124) scale(-1, 1) translate(-108.8182, -124)">
                    <path d="M5.55685545,111.620305 L81.4736936,189.685839 C86.2388885,194.759251 93.2954236,196.793952 99.9311138,195.007901 C106.566804,193.221851 111.748982,187.893001 113.485872,181.069499 C115.222763,174.245997 113.244066,166.989738 108.310296,162.089673 L45.8117589,97.8222222 L108.310296,33.5547716 C113.244066,28.654706 115.222763,21.3984478 113.485872,14.5749458 C111.748982,7.75144374 106.566804,2.4225936 99.9311138,0.636543176 C93.2954236,-1.14950725 86.2388885,0.885193067 81.4736936,5.95860544 L5.55685545,84.0241391 C-1.85228515,91.645284 -1.85228515,103.99916 5.55685545,111.620305 Z" id="Path-Copy" fill="#15B6B0"></path>
                    <path d="M136.16267,58.314161 C131.397475,53.2407486 124.34094,51.2060483 117.70525,52.9920987 C111.06956,54.7781492 105.887382,60.1069993 104.150491,66.9305013 C102.413601,73.7540034 104.392297,81.0102615 109.326068,85.9103272 L171.824605,150.177778 L109.326068,214.445228 C104.392297,219.345294 102.413601,226.601552 104.150491,233.425054 C105.887382,240.248556 111.06956,245.577406 117.70525,247.363457 C124.34094,249.149507 131.397475,247.114807 136.16267,242.041395 L212.079508,163.975861 C219.488649,156.354716 219.488649,144.00084 212.079508,136.379695 L136.16267,58.314161 Z" id="Path-Copy-2" fill="#20C943"></path>
                </g>
            </g>
        </g>
    </g>
</svg>